<svg width="1418" height="974" viewBox="0 0 1418 974" fill="none" xmlns="http://www.w3.org/2000/svg">
<path d="M-58.5 66C-32 201 656.5 219 867 176.5C1077.5 134 798 23.5 554.5 56C386.73 78.3923 71.5001 245.5 85.0001 351C98.5001 456.5 648 507 773.5 448C899 389 567 264.08 419 385.58C271 507.08 396.5 680.539 640.5 707.5C821.5 727.5 1293.23 707 1363.5 585C1399.5 522.5 1195.65 391.398 959 515C802 597 936 875 1199.5 895C1463 915 1357.5 796 1278.5 816C1215.3 832 1039.5 960.5 999 1046" stroke="#FEDCDB" stroke-width="100"/>
</svg>
