<svg width="1418" height="974" viewBox="0 0 1418 974" fill="none" xmlns="http://www.w3.org/2000/svg">
<path d="M-55.5 56.0001C-18.5 176.5 656.5 219 867 176.5C1077.5 134 798 23.5 554.5 56C386.73 78.3923 71.5001 245.5 85.0001 351C98.5001 456.5 648 507 773.5 448C899 389 567 264.08 419 385.58C271 507.08 401.166 611.891 640.5 666.5C818 707 1183 765 1278.5 647.5C1374 530 1177.03 404.404 959 558.5C759.5 699.5 936 875 1199.5 895C1463 915 1357.5 796 1278.5 816C1215.3 832 1039.5 960.5 999 1046" stroke="#FEDCDB" stroke-width="100"/>
</svg>
