<svg width="1440" height="1024" viewBox="0 0 1440 1024" fill="none" xmlns="http://www.w3.org/2000/svg">
<mask id="mask0" mask-type="alpha" maskUnits="userSpaceOnUse" x="0" y="0" width="1440" height="1024">
<rect width="1440" height="1024" fill="#C4C4C4"/>
</mask>
<g mask="url(#mask0)">
<path d="M295 -148.501C73.9999 -231.001 -202.5 -83.0011 -176 51.9989C-149.5 186.999 656.5 269 867 226.5C1077.5 184 798 73.5 554.5 106C386.73 128.392 71.5 295.5 85 401C98.5 506.5 648 557 773.5 498C899 439 567 314.08 419 435.58C271 557.08 396.5 730.539 640.5 757.5C821.5 777.5 1293.23 757 1363.5 635C1399.5 572.5 1195.65 441.398 959 565C802 647 936 925 1199.5 945C1463 965 1357.5 846 1278.5 866C1215.3 882 1039.5 1010.5 999 1096" stroke="#FEDCDB" stroke-width="100"/>
</g>
</svg>
