<svg width="77" height="16" viewBox="0 0 77 16" fill="none" xmlns="http://www.w3.org/2000/svg">
<path d="M7.90863 15.32C5.75396 15.32 3.96196 14.6053 2.53263 13.176C1.10329 11.7467 0.388625 9.95467 0.388625 7.8C0.388625 5.64533 1.10329 3.85333 2.53263 2.424C3.96196 0.994666 5.75396 0.28 7.90863 0.28C10.042 0.28 11.8233 0.994666 13.2526 2.424C14.7033 3.87467 15.4286 5.66667 15.4286 7.8C15.4286 9.93333 14.7033 11.7253 13.2526 13.176C11.8233 14.6053 10.042 15.32 7.90863 15.32ZM7.90863 2.648C6.45796 2.648 5.25263 3.13867 4.29263 4.12C3.33263 5.10133 2.85263 6.328 2.85263 7.8C2.85263 9.272 3.33263 10.4987 4.29263 11.48C5.25263 12.4613 6.45796 12.952 7.90863 12.952C9.35929 12.952 10.5646 12.4613 11.5246 11.48C12.4846 10.4987 12.9646 9.272 12.9646 7.8C12.9646 6.328 12.4846 5.10133 11.5246 4.12C10.5646 3.13867 9.35929 2.648 7.90863 2.648ZM22.2474 15V2.872H16.8714V0.599999H29.9594V2.872H24.5834V15H22.2474ZM45.9851 8.6H33.6331C33.7825 9.88 34.3478 10.9573 35.3291 11.832C36.3105 12.6853 37.4945 13.112 38.8811 13.112C40.7158 13.112 42.1345 12.4187 43.1371 11.032L45.4091 11.768C44.7478 12.8773 43.8411 13.752 42.6891 14.392C41.5371 15.0107 40.2678 15.32 38.8811 15.32C36.6625 15.32 34.8278 14.6053 33.3771 13.176C31.9265 11.7253 31.2011 9.93333 31.2011 7.8C31.2011 5.66667 31.9158 3.88533 33.3451 2.456C34.7958 1.00533 36.5665 0.28 38.6571 0.28C40.7478 0.28 42.4971 1.00533 43.9051 2.456C45.3345 3.88533 46.0491 5.66667 46.0491 7.8C46.0491 8.12 46.0278 8.38667 45.9851 8.6ZM33.6651 6.712H43.6171C43.3825 5.47467 42.7958 4.46133 41.8571 3.672C40.9398 2.88267 39.8518 2.488 38.5931 2.488C37.3771 2.488 36.3105 2.88267 35.3931 3.672C34.4758 4.46133 33.8998 5.47467 33.6651 6.712ZM47.9281 15H46.9681V12.728H47.7681C49.1335 12.728 49.8161 11.2133 49.8161 8.184V0.599999H60.9841V15H58.6161V2.872H52.1521V8.664C52.1521 10.776 51.7788 12.3653 51.0321 13.432C50.2855 14.4773 49.2508 15 47.9281 15ZM72.1676 15H65.0316V0.599999H67.3996V5.784H72.1676C73.4476 5.784 74.5143 6.17867 75.3676 6.968C76.221 7.75733 76.701 8.792 76.8076 10.072C76.8076 11.5227 76.381 12.7067 75.5276 13.624C74.6956 14.5413 73.5756 15 72.1676 15ZM67.3996 8.056V12.728H72.1676C72.7863 12.728 73.2983 12.504 73.7036 12.056C74.1303 11.608 74.3436 11.0533 74.3436 10.392C74.3436 9.73067 74.1303 9.176 73.7036 8.728C73.2983 8.28 72.7863 8.056 72.1676 8.056H67.3996Z" fill="#0001FC"/>
</svg>
