<svg width="507" height="194" viewBox="0 0 507 194" fill="none" xmlns="http://www.w3.org/2000/svg">
<path d="M22.9446 90.586L10.842 87.3489L17.3534 63.0046L28.7604 66.0557C30.6616 66.5642 32.08 67.5771 33.0157 69.0944C33.9746 70.6179 34.2184 72.2607 33.7471 74.0228C33.1332 76.3181 31.6681 77.8019 29.3517 78.4742C30.5136 79.3315 31.3314 80.4074 31.805 81.7017C32.2787 82.996 32.3264 84.3504 31.9481 85.7646C31.4272 87.7122 30.3006 89.1375 28.5685 90.0406C26.8827 90.9561 25.008 91.1379 22.9446 90.586ZM26.0607 78.9355L16.2535 76.3124L13.714 85.8066L23.5213 88.4298C24.8892 88.7956 26.1578 88.6505 27.327 87.9943C28.4963 87.3382 29.2608 86.3377 29.6204 84.993C29.9801 83.6483 29.8172 82.3998 29.1316 81.2475C28.4523 80.0721 27.4286 79.3014 26.0607 78.9355ZM28.1837 68.2119L19.072 65.7748L16.8302 74.1562L25.9419 76.5933C27.1475 76.9157 28.2615 76.7913 29.2838 76.2201C30.3355 75.6319 31.0195 74.7465 31.3358 73.5641C31.6582 72.3585 31.5192 71.253 30.9185 70.2477C30.3241 69.2192 29.4125 68.5406 28.1837 68.2119Z" fill="#0001FC"/>
<path d="M36.0392 93.9657L33.586 93.3891L50.2511 71.4194L52.0734 71.8477L57.2063 98.941L54.7532 98.3644L53.5334 91.7539L40.1112 88.599L36.0392 93.9657ZM53.0628 89.3505L50.3715 74.9979L41.5681 86.6487L53.0628 89.3505Z" fill="#0001FC"/>
<path d="M65.0829 90.3451L63.0046 100.172L60.68 99.68L65.8945 75.0254L76.5664 77.2826C78.797 77.7543 80.4771 78.8579 81.6064 80.5931C82.7877 82.3148 83.1574 84.2205 82.7154 86.3103C82.2685 88.4236 81.1539 90.0399 79.3717 91.1594C77.6179 92.2603 75.6374 92.5774 73.4303 92.1105L65.0829 90.3451ZM76.1045 79.4662L67.7572 77.7008L65.5448 88.1614L73.8921 89.9268C75.3949 90.2447 76.7671 90.0198 78.0088 89.2521C79.232 88.456 80.0026 87.3065 80.3204 85.8038C80.6333 84.3245 80.3774 82.9825 79.5529 81.7778C78.7567 80.5546 77.6073 79.7841 76.1045 79.4662Z" fill="#0001FC"/>
<path d="M86.9786 105.147L84.8919 104.751L89.5946 79.9938L91.9289 80.4372L87.992 101.163L108.339 83.5544L110.426 83.9508L105.723 108.708L103.389 108.265L107.326 87.5393L86.9786 105.147Z" fill="#0001FC"/>
<path d="M111.487 109.749L109.003 109.326L124.271 86.3637L126.116 86.6781L132.922 113.4L130.438 112.977L128.81 106.455L115.218 104.14L111.487 109.749ZM128.191 104.086L124.613 89.9278L116.551 102.103L128.191 104.086Z" fill="#0001FC"/>
<path d="M139.513 114.443L137.164 114.087L140.935 89.1712L143.284 89.5267L141.593 100.703L157.788 103.154L159.48 91.9777L161.829 92.3333L158.058 117.25L155.709 116.894L157.454 105.361L141.259 102.91L139.513 114.443Z" fill="#0001FC"/>
<path d="M177.245 96.7063L167.324 95.3892L167.618 93.1766L189.851 96.1283L189.557 98.3409L179.636 97.0238L176.613 119.792L174.222 119.475L177.245 96.7063Z" fill="#0001FC"/>
<path d="M202.084 122.944L191.353 121.725L194.197 96.686L196.558 96.9542L195.4 107.149L203.77 108.099C205.988 108.351 207.743 109.275 209.035 110.871C210.378 112.449 210.93 114.287 210.691 116.385C210.453 118.484 209.501 120.163 207.837 121.423C206.219 122.689 204.302 123.196 202.084 122.944ZM195.148 109.366L193.966 119.775L202.336 120.726C203.838 120.897 205.158 120.551 206.294 119.69C207.41 118.802 208.053 117.607 208.223 116.105C208.375 114.77 208.086 113.589 207.357 112.565C206.631 111.516 205.623 110.822 204.333 110.482C204.1 110.407 203.828 110.352 203.518 110.317L195.148 109.366ZM216.714 124.605L214.353 124.337L217.197 99.2983L219.558 99.5664L216.714 124.605Z" fill="#0001FC"/>
<path d="M233.77 116.183L232.879 126.187L230.512 125.976L232.749 100.876L243.614 101.844C245.885 102.047 247.684 102.942 249.013 104.53C250.391 106.099 250.985 107.947 250.796 110.074C250.604 112.226 249.69 113.963 248.054 115.287C246.444 116.59 244.515 117.141 242.268 116.94L233.77 116.183ZM243.416 104.067L234.917 103.31L233.968 113.96L242.467 114.717C243.996 114.854 245.332 114.467 246.473 113.556C247.593 112.62 248.221 111.387 248.357 109.857C248.491 108.351 248.077 107.049 247.115 105.951C246.179 104.832 244.946 104.204 243.416 104.067Z" fill="#0001FC"/>
<path d="M255.19 128.14L252.676 127.96L265.645 103.625L267.512 103.759L276.878 129.695L274.365 129.515L272.112 123.181L258.359 122.196L255.19 128.14ZM271.266 120.883L266.332 107.139L259.488 120.039L271.266 120.883Z" fill="#0001FC"/>
<path d="M289.213 130.712C284.563 130.459 281.436 128.294 279.831 124.217L282.143 123.477C283.369 126.573 285.755 128.217 289.302 128.409C291.435 128.525 293.198 128.141 294.592 127.255C296.012 126.347 296.763 125.126 296.846 123.592C296.918 122.274 296.488 121.133 295.554 120.169C294.623 119.181 293.462 118.649 292.072 118.573L287.183 118.307L287.304 116.079L292.121 116.341C293.367 116.409 294.433 116.046 295.317 115.253C296.225 114.461 296.712 113.478 296.775 112.304C296.851 110.914 296.29 109.741 295.092 108.787C293.918 107.834 292.348 107.304 290.383 107.197C286.932 107.009 284.43 108.387 282.876 111.331L280.658 110.345C282.696 106.466 285.979 104.65 290.508 104.896C293.145 105.04 295.278 105.805 296.909 107.191C298.566 108.555 299.339 110.244 299.23 112.257C299.167 113.407 298.798 114.457 298.121 115.405C297.468 116.355 296.588 117.076 295.48 117.569C296.742 118.214 297.703 119.108 298.362 120.249C299.047 121.368 299.352 122.599 299.279 123.941C299.166 126.026 298.148 127.725 296.226 129.038C294.306 130.304 291.968 130.862 289.213 130.712Z" fill="#0001FC"/>
<path d="M308.617 131.367L306.243 131.288L307.078 106.102L309.453 106.181L319.556 125.21L330.933 106.893L333.308 106.972L332.472 132.158L330.098 132.079L330.784 111.391L320.241 128.438L318.694 128.387L309.303 110.714L308.617 131.367Z" fill="#0001FC"/>
<path d="M337.119 107.029L355.046 107.26L355.017 109.492L339.466 109.292L339.35 118.363L353.1 118.54L353.072 120.772L339.321 120.595L339.199 130.026L354.93 130.228L354.901 132.46L336.795 132.227L337.119 107.029Z" fill="#0001FC"/>
<path d="M360.156 107.402L362.532 107.37L362.837 130.336L375.832 130.163L375.527 107.197L377.902 107.166L378.208 130.132L391.347 129.957L391.041 106.991L393.417 106.959L393.723 129.925L398.006 129.868L398.118 138.219L395.742 138.251L395.66 132.131L360.491 132.6L360.156 107.402Z" fill="#0001FC"/>
<path d="M402.871 106.627L420.783 105.883L420.876 108.113L405.337 108.758L405.713 117.823L419.454 117.252L419.546 119.482L405.806 120.053L406.197 129.477L421.916 128.824L422.008 131.054L403.916 131.805L402.871 106.627Z" fill="#0001FC"/>
<path d="M427.718 130.763L425.347 130.914L423.742 105.765L426.113 105.614L426.833 116.895L443.18 115.852L442.46 104.571L444.831 104.419L446.436 129.568L444.065 129.719L443.322 118.079L426.975 119.122L427.718 130.763Z" fill="#0001FC"/>
<path d="M457.813 128.688L455.698 128.882L453.392 103.788L455.758 103.57L457.689 124.578L472.392 102.042L474.507 101.847L476.813 126.942L474.447 127.159L472.517 106.151L457.813 128.688Z" fill="#0001FC"/>
<path d="M489.658 115.278L484.602 126.104L481.957 126.419L487.027 115.41C485.194 115.242 483.638 114.557 482.359 113.356C481.081 112.154 480.333 110.648 480.118 108.837C479.865 106.716 480.405 104.851 481.736 103.242C483.067 101.634 484.853 100.696 487.093 100.43L498.246 99.1019L501.225 124.125L498.865 124.406L497.665 114.325L489.658 115.278ZM488.608 113.156L497.402 112.109L496.15 101.599L487.357 102.646C485.784 102.833 484.546 103.5 483.643 104.647C482.737 105.77 482.373 107.07 482.548 108.548C482.724 110.025 483.386 111.215 484.532 112.118C485.7 112.994 487.059 113.34 488.608 113.156Z" fill="#0001FC"/>
</svg>
