<svg width="313" height="156" viewBox="0 0 313 156" fill="none" xmlns="http://www.w3.org/2000/svg">
<path d="M20.4813 50.9447L14.3919 73.0907L12.1009 72.4608L18.7821 48.1626L34.0552 52.3622L33.4635 54.5143L20.4813 50.9447Z" fill="#0001FC"/>
<path d="M34.8195 78.5005L32.7489 78.0272L38.365 53.4609L40.6813 53.9905L35.9798 74.5559L56.9652 57.7131L59.0357 58.1865L53.4197 82.7527L51.1034 82.2232L55.8049 61.6578L34.8195 78.5005Z" fill="#0001FC"/>
<path d="M59.4992 84.0485L58.3628 90.0621L56.0281 89.6209L57.579 81.4142L60.3027 81.9289C62.7017 81.7716 64.5028 78.5093 65.706 72.142L67.9988 60.0087L85.3674 63.2909L81.1026 85.8594L85.3121 86.6549L83.7613 94.8617L81.4266 94.4205L82.563 88.4069L59.4992 84.0485ZM63.734 82.5773L78.7679 85.4182L82.6183 65.0429L69.9544 62.6498L68.1028 72.4483C67.1536 77.4714 65.6973 80.8478 63.734 82.5773Z" fill="#0001FC"/>
<path d="M105.181 68.8372L101.902 91.5699L99.5503 91.2307L103.148 66.2888L124.063 69.3057L120.466 94.2475L118.114 93.9083L121.393 71.1756L105.181 68.8372Z" fill="#0001FC"/>
<path d="M127.252 82.4735C127.667 78.8009 129.241 75.8872 131.972 73.7324C134.706 71.5538 137.909 70.6721 141.582 71.0873C145.231 71.4998 148.145 73.0731 150.323 75.8072C152.504 78.5174 153.388 81.7088 152.972 85.3814C152.56 89.0301 150.987 91.9438 148.252 94.1225C145.518 96.3011 142.327 97.1842 138.678 96.7717C135.006 96.3564 132.08 94.7818 129.901 92.0477C127.723 89.3137 126.84 86.1223 127.252 82.4735ZM133.539 75.5761C131.33 77.3794 130.057 79.7716 129.72 82.7526C129.383 85.7336 130.089 88.3614 131.836 90.6362C133.613 92.8659 135.98 94.1479 138.937 94.4822C141.918 94.8193 144.5 94.0967 146.682 92.3146C148.917 90.4901 150.203 88.0874 150.54 85.1064C150.88 82.1015 150.161 79.4842 148.384 77.2545C146.658 75.0063 144.304 73.7137 141.323 73.3767C138.366 73.0424 135.771 73.7755 133.539 75.5761Z" fill="#0001FC"/>
<path d="M166.806 86.6719C167.065 82.985 168.513 80.0072 171.151 77.7385C173.79 75.4459 176.953 74.4292 180.64 74.6883C184.303 74.9457 187.281 76.394 189.573 79.0332C191.868 81.6485 192.885 84.7996 192.626 88.4865C192.369 92.1494 190.92 95.1272 188.281 97.4199C185.642 99.7125 182.491 100.73 178.828 100.473C175.141 100.214 172.151 98.7644 169.859 96.1252C167.566 93.486 166.548 90.3349 166.806 86.6719ZM172.794 79.5141C170.664 81.4095 169.494 83.8534 169.284 86.8461C169.073 89.8387 169.89 92.4343 171.732 94.6328C173.602 96.7852 176.021 97.9657 178.99 98.1743C181.982 98.3846 184.531 97.5533 186.635 95.6802C188.791 93.7626 189.974 91.3075 190.184 88.3149C190.396 85.2983 189.567 82.7138 187.698 80.5615C185.877 78.3885 183.471 77.1969 180.478 76.9866C177.51 76.778 174.948 77.6205 172.794 79.5141Z" fill="#0001FC"/>
<path d="M206.24 78.6818L196.24 78.2876L196.328 76.0574L218.738 76.9407L218.65 79.1709L208.65 78.7768L207.746 101.727L205.335 101.632L206.24 78.6818Z" fill="#0001FC"/>
<path d="M222.399 77.0081L240.326 77.2213L240.3 79.4531L224.749 79.2682L224.641 88.3396L238.392 88.5031L238.365 90.7349L224.614 90.5714L224.502 100.003L240.233 100.19L240.207 102.422L222.1 102.206L222.399 77.0081Z" fill="#0001FC"/>
<path d="M244.036 102.456L243.208 102.471L243.166 100.24L243.994 100.224C245.362 100.198 246.415 99.3866 247.153 97.7884C247.915 96.1898 248.259 93.4109 248.185 89.4516L247.954 77.1777L265.555 76.847L266.028 102.043L263.653 102.087L263.221 79.1232L250.407 79.364L250.596 89.4062C250.758 98.0207 248.571 102.371 244.036 102.456Z" fill="#0001FC"/>
<path d="M271.949 101.971L270.406 76.8186L272.778 76.6732L273.47 87.956L279.039 87.6146C279.12 84.2193 280.291 81.3582 282.553 79.0315C284.814 76.7047 287.682 75.4348 291.156 75.2218C294.821 74.9971 297.963 76.0428 300.581 78.3589C303.198 80.651 304.62 83.6416 304.846 87.3307C305.071 90.9958 304.025 94.1377 301.709 96.7563C299.393 99.375 296.403 100.797 292.737 101.021C289.192 101.239 286.153 100.295 283.619 98.1901C281.06 96.0627 279.567 93.2809 279.14 89.8446L273.606 90.1839L274.32 101.826L271.949 101.971ZM284.01 81.034C282.147 83.1921 281.307 85.7683 281.49 88.7627C281.674 91.7571 282.823 94.2234 284.937 96.1616C287.073 98.0505 289.626 98.9038 292.596 98.7217C295.591 98.5381 298.009 97.38 299.849 95.2473C301.711 93.0653 302.551 90.4771 302.367 87.4827C302.183 84.4883 301.035 82.034 298.922 80.1197C296.833 78.204 294.291 77.3379 291.297 77.5215C288.326 77.7036 285.897 78.8745 284.01 81.034Z" fill="#0001FC"/>
</svg>
