<svg width="178" height="136" viewBox="0 0 178 136" fill="none" xmlns="http://www.w3.org/2000/svg">
<path d="M25.264 61.6495L25.3613 61.5635L19.4642 40.2283L22.0047 40.9007L27.1105 59.4569L39.0226 45.4052L41.4935 46.0592L27.0338 63.1234C25.9093 64.4643 24.665 65.4135 23.3009 65.971C21.943 66.5053 20.5912 66.5944 19.2455 66.2382L16.6702 65.5566L17.2413 63.3989L19.6774 64.0437C21.6031 64.5534 23.4653 63.7553 25.264 61.6495Z" fill="#0001FC"/>
<path d="M41.0657 58.9885C41.9154 55.3915 43.8246 52.686 46.7932 50.8718C49.7672 49.0344 53.0528 48.5405 56.6498 49.3902C59.0089 49.9475 61.0075 50.9868 62.6456 52.5081C64.3071 54.035 65.4488 55.883 66.0708 58.0521L63.6566 58.4066C63.0988 56.6965 62.1574 55.2534 60.8323 54.0773C59.5127 52.8778 57.942 52.0628 56.1201 51.6325C53.2238 50.9483 50.5602 51.3671 48.1292 52.889C45.7216 54.4164 44.1729 56.6399 43.4832 59.5596C42.7935 62.4792 43.1807 65.1724 44.6448 67.6391C46.1434 70.0645 48.3408 71.6194 51.2371 72.3035C53.0589 72.7339 54.8255 72.7197 56.5368 72.2608C58.2537 71.7786 59.7441 70.8977 61.0082 69.618L63.0085 71.0153C61.4405 72.6424 59.5691 73.7786 57.3945 74.4239C55.2488 75.0514 53.0197 75.0921 50.7074 74.5458C47.1104 73.6961 44.3931 71.7842 42.5557 68.8101C40.7182 65.836 40.2215 62.5622 41.0657 58.9885Z" fill="#0001FC"/>
<path d="M66.1272 77.8165L65.3142 77.6599L65.7363 75.4682L66.5494 75.6248C67.8927 75.8835 69.0912 75.3078 70.1449 73.8976C71.2222 72.492 72.1353 69.8449 72.8842 65.9564L75.206 53.9019L92.4923 57.2313L87.7262 81.9765L85.3931 81.5272L89.737 58.9737L77.1523 56.5498L75.2527 66.4126C73.6232 74.8731 70.5814 78.6744 66.1272 77.8165Z" fill="#0001FC"/>
<path d="M104.358 78.4376L104.443 78.3402L95.9445 57.9017L98.5488 58.2537L105.918 76.0329L115.994 60.6116L118.527 60.954L106.297 79.6805C105.347 81.1506 104.23 82.2469 102.946 82.9694C101.665 83.6681 100.334 83.9242 98.955 83.7377L96.315 83.3809L96.614 81.169L99.1113 81.5066C101.085 81.7734 102.834 80.7504 104.358 78.4376Z" fill="#0001FC"/>
<path d="M124.038 63.62L122.39 86.5287L120.02 86.3582L121.828 61.2232L137.628 62.3598L137.467 64.5861L124.038 63.62Z" fill="#0001FC"/>
<path d="M144.491 87.8231L142.367 87.8308L142.276 62.6309L144.652 62.6224L144.728 83.7182L161.356 62.5621L163.48 62.5544L163.57 87.7542L161.195 87.7628L161.118 66.667L144.491 87.8231Z" fill="#0001FC"/>
</svg>
