<svg width="222" height="99" viewBox="0 0 222 99" fill="none" xmlns="http://www.w3.org/2000/svg">
<path d="M34.9775 57.8991L32.0642 58.8352L16.5134 50.3332L23.669 35.0638L26.5823 34.1276L19.4267 49.397L34.9775 57.8991ZM16.9837 63.6813L9.27404 39.6896L11.5361 38.9627L19.2458 62.9544L16.9837 63.6813Z" fill="#0001FC"/>
<path d="M34.1773 44.9508C33.3691 41.3442 33.9034 38.0763 35.7803 35.147C37.6519 32.1942 40.391 30.3137 43.9975 29.5055C47.5806 28.7025 50.8486 29.2369 53.8013 31.1085C56.7488 32.9566 58.6267 35.684 59.4349 39.2906C60.2379 42.8737 59.7036 46.1416 57.832 49.0944C55.9604 52.0471 53.233 53.925 49.6499 54.7279C46.0433 55.5362 42.7637 55.0045 39.8109 53.1329C36.8582 51.2613 34.9803 48.5339 34.1773 44.9508ZM37.8637 36.3771C36.366 38.8034 35.9452 41.4802 36.6012 44.4076C37.2573 47.335 38.7828 49.5879 41.178 51.1663C43.586 52.6927 46.2421 53.1305 49.146 52.4797C52.0734 51.8237 54.2769 50.2969 55.7564 47.8993C57.2723 45.4444 57.7022 42.7533 57.0461 39.8259C56.3849 36.8751 54.8502 34.6365 52.4421 33.1101C50.0757 31.5498 47.4287 31.0977 44.5013 31.7538C41.5974 32.4045 39.3848 33.9457 37.8637 36.3771Z" fill="#0001FC"/>
<path d="M69.1547 50.5436L66.7989 50.8531L63.5162 25.8679L65.872 25.5584L67.3445 36.766L83.5849 34.6323L82.1124 23.4246L84.4682 23.1151L87.7509 48.1003L85.3951 48.4099L83.8757 36.8453L67.6353 38.979L69.1547 50.5436Z" fill="#0001FC"/>
<path d="M100.102 24.2238L90.1083 24.7655L89.9874 22.5367L112.383 21.3228L112.503 23.5515L102.51 24.0932L103.753 47.0276L101.345 47.1581L100.102 24.2238Z" fill="#0001FC"/>
<path d="M114.547 46.059L112.027 46.0096L123.716 21.0342L125.587 21.0709L136.286 46.4858L133.767 46.4363L131.188 40.2285L117.403 39.9579L114.547 46.059ZM130.224 37.9772L124.584 24.5079L118.419 37.7454L130.224 37.9772Z" fill="#0001FC"/>
<path d="M159.081 48.8376L156.033 48.5663L145.017 34.6829L157.55 23.4017L160.598 23.673L148.065 34.9542L159.081 48.8376ZM140.256 47.162L142.49 22.0612L144.856 22.2719L142.622 47.3726L140.256 47.162Z" fill="#0001FC"/>
<path d="M174.53 27.709L164.654 26.0892L165.015 23.8867L187.147 27.5165L186.786 29.7191L176.91 28.0994L173.193 50.7646L170.813 50.3742L174.53 27.709Z" fill="#0001FC"/>
<path d="M195.571 55.5248L185.117 52.81L191.452 28.4192L193.751 29.0164L191.172 38.947L199.326 41.0645C201.486 41.6255 203.094 42.787 204.149 44.5487C205.257 46.2993 205.545 48.1967 205.014 50.2409C204.483 52.2851 203.305 53.814 201.48 54.8277C199.701 55.8535 197.731 56.0858 195.571 55.5248ZM190.611 41.1073L187.978 51.2469L196.132 53.3645C197.595 53.7445 198.95 53.5881 200.196 52.8951C201.425 52.1728 202.23 51.08 202.61 49.6165C202.948 48.3157 202.828 47.1067 202.25 45.9896C201.678 44.8493 200.778 44.0203 199.548 43.5026C199.328 43.3959 199.067 43.3033 198.765 43.2248L190.611 41.1073ZM209.822 59.2259L207.522 58.6287L213.857 34.2378L216.156 34.8351L209.822 59.2259Z" fill="#0001FC"/>
</svg>
