<svg width="207" height="77" viewBox="0 0 207 77" fill="none" xmlns="http://www.w3.org/2000/svg">
<path d="M5.06647 52.1761C4.66964 48.5015 5.56867 45.3145 7.76354 42.6153C9.95584 39.8921 12.8893 38.3322 16.5639 37.9353C20.2147 37.5411 23.4017 38.4401 26.1248 40.6324C28.8453 42.8008 30.404 45.7224 30.8009 49.397C31.1951 53.0478 30.2961 56.2347 28.1038 58.9579C25.9115 61.681 22.9899 63.2397 19.3392 63.6339C15.6645 64.0307 12.4657 63.133 9.74253 60.9407C7.01941 58.7484 5.46072 55.8269 5.06647 52.1761ZM9.69515 44.0723C7.93369 46.3144 7.21401 48.9267 7.53611 51.9094C7.85821 54.8921 9.12031 57.3025 11.3224 59.1407C13.5432 60.9286 16.133 61.6628 19.0918 61.3432C22.0745 61.0211 24.4359 59.7523 26.176 57.5366C27.9588 55.2681 28.6891 52.6425 28.367 49.6599C28.0423 46.6533 26.7696 44.2561 24.5488 42.4682C22.3731 40.6513 19.794 39.9039 16.8113 40.226C13.8525 40.5455 11.4805 41.8276 9.69515 44.0723Z" fill="#0001FC"/>
<path d="M48.9492 59.6695L46.5992 60.0196L42.886 35.0947L45.236 34.7446L46.9017 45.9252L63.1029 43.5116L61.4372 32.331L63.7873 31.9809L67.5005 56.9058L65.1504 57.2559L63.4318 45.7192L47.2305 48.1328L48.9492 59.6695Z" fill="#0001FC"/>
<path d="M74.85 55.7027L72.3698 56.1487L78.9297 29.3651L80.7721 29.0339L96.2508 51.8549L93.7706 52.3009L90.0238 46.7198L76.4534 49.1597L74.85 55.7027ZM88.6368 44.7014L80.4625 32.601L77.0151 46.791L88.6368 44.7014Z" fill="#0001FC"/>
<path d="M96.0604 39.0897C95.2739 35.4783 95.8278 32.2137 97.7222 29.2957C99.6115 26.3542 102.362 24.4902 105.973 23.7037C108.342 23.1878 110.593 23.2624 112.727 23.9274C114.885 24.5873 116.713 25.7612 118.211 27.4492L116.186 28.8112C114.945 27.5096 113.472 26.6144 111.769 26.1256C110.061 25.6134 108.293 25.5565 106.463 25.9549C103.556 26.5882 101.334 28.116 99.7982 30.5383C98.286 32.9555 97.8491 35.6298 98.4875 38.561C99.126 41.4923 100.638 43.7544 103.024 45.3471C105.422 46.8879 108.076 47.3417 110.984 46.7083C112.813 46.3099 114.4 45.5344 115.746 44.3816C117.086 43.2054 118.05 41.7673 118.638 40.0673L121.045 40.464C120.333 42.6087 119.136 44.4415 117.453 45.9625C115.789 47.4549 113.796 48.4539 111.474 48.9595C107.863 49.7461 104.586 49.1947 101.645 47.3054C98.7033 45.4161 96.8419 42.6775 96.0604 39.0897Z" fill="#0001FC"/>
</svg>
